Coordinates
version=1
nRows=19
nColumns=36
inDegrees=yes

Units are S.I. units (second, meters, Newtons, ...)
If the header above contains a line with 'inDegrees', this indicates whether rotational values are in degrees (yes) or radians (no).

endheader
time	pelvis_tilt	pelvis_list	pelvis_rotation	pelvis_tx	pelvis_ty	pelvis_tz	hip_flexion_r	hip_adduction_r	hip_rotation_r	knee_angle_r	knee_angle_r_beta	ankle_angle_r	subtalar_angle_r	mtp_angle_r	hip_flexion_l	hip_adduction_l	hip_rotation_l	knee_angle_l	knee_angle_l_beta	ankle_angle_l	subtalar_angle_l	mtp_angle_l	lumbar_extension	lumbar_bending	lumbar_rotation	arm_flex_r	arm_add_r	arm_rot_r	elbow_flex_r	pro_sup_r	arm_flex_l	arm_add_l	arm_rot_l	elbow_flex_l	pro_sup_l
     29.83333330	      4.74810142	     -2.76524686	     -1.63058382	      0.58069089	      1.02993107	      0.76680779	    -10.44097432	      4.77662143	      1.52990785	      6.49132211	      0.11329494	     16.73593134	      2.03830862	     -7.49999987	     22.58468063	     -5.40516265	     -1.17780598	     22.67105321	      0.39568452	      8.40315696	     -1.67388989	     -7.49999987	    -21.81251443	      3.79326142	      7.38736388	     11.98420578	    -20.95079056	      7.10248807	     36.44676255	     83.98788864	      6.77349130	     -9.77227315	     17.39984586	     23.17371367	     91.36849373
     29.85000000	      4.49993636	     -2.94678926	     -1.61260962	      0.58134229	      1.02717800	      0.76545871	    -11.67179246	      4.94915524	      1.52413106	      5.61821330	      0.09805632	     17.20531184	      2.97000832	     -7.49999987	     23.08776498	     -5.40260321	     -0.63372779	     18.28295813	      0.31909782	      8.56390025	     -0.45379890	     -7.49999987	    -21.74083738	      3.97712238	      6.91276353	     12.92784983	    -21.20378378	      7.92440038	     36.54974761	     85.85776585	      6.18627459	     -9.47736226	     14.35209424	     23.57256499	     95.22964328
     29.86666670	      4.31998963	     -3.13604774	     -1.77215542	      0.58287711	      1.02353605	      0.76254043	    -12.98235839	      5.07659683	      2.03154382	      4.93607722	      0.08615080	     17.47938642	      3.55319635	     -7.49999987	     23.37057516	     -5.46497574	     -0.16360092	     14.39490753	      0.25123853	      8.80770056	      0.75750418	     -7.49999987	    -21.62860491	      4.07592444	      7.14012795	     13.04989362	    -21.58474574	      7.91248906	     37.05166366	     85.17765808	      6.14246846	     -9.21694251	     13.82119320	     23.54540305	     94.81886855
     29.88333330	      4.16717632	     -3.23369693	     -1.93629046	      0.58497690	      1.02050826	      0.75778878	    -14.33360509	      5.05004702	      2.48310070	      4.47030964	      0.07802162	     17.86830977	      4.33900325	     -7.49999987	     23.65877573	     -5.39159557	      0.24168336	     11.61434585	      0.20270858	      9.08873478	      1.79581046	     -7.49999987	    -21.29873121	      4.10880584	      7.33807610	     13.06406180	    -21.95235507	      8.15511051	     37.20901361	     84.52976785	      6.19229277	     -8.86817023	     13.37518644	     23.07579564	     94.50011614
     29.90000000	      4.17320768	     -3.20322596	     -2.13680388	      0.58676257	      1.01888002	      0.75291221	    -15.85108139	      4.82069728	      3.14064047	      4.11460964	      0.07181349	     18.23227021	      4.89694111	     -7.49999987	     23.85973357	     -5.11163260	      0.42908469	     10.13908058	      0.17696034	      9.39445012	      2.51719881	     -7.49999987	    -21.06602737	      3.99984381	      7.60833158	     13.02006613	    -22.29863767	      8.23659829	     37.08113300	     84.63468570	      6.15574287	     -8.58239958	     12.93943508	     23.06354543	     94.80432584
     29.91666670	      4.18870665	     -3.01986449	     -2.33509602	      0.58856074	      1.01786651	      0.74969206	    -17.32693705	      4.38210945	      3.62544663	      3.85899840	      0.06735223	     18.59733684	      5.57295530	     -7.49999987	     24.11901878	     -4.62481950	      0.34927207	      9.84461206	      0.17182089	      9.41148844	      2.72412517	     -7.49999987	    -20.73774906	      3.73151690	      7.91901390	     12.78244873	    -22.61969274	      8.48214283	     36.90142765	     84.63957366	      6.41073918	     -8.33528592	     13.40900702	     22.33917583	     95.21909730
     29.93333330	      4.17771679	     -2.82091762	     -2.59037386	      0.59064071	      1.01557755	      0.74824381	    -18.65795245	      3.88088078	      4.16754236	      3.74679175	      0.06539385	     18.77775284	      5.93586859	     -7.49999987	     24.44055926	     -4.15821261	      0.10517067	     10.51132989	      0.18345732	      9.11522360	      2.48849693	     -7.49999987	    -20.36158220	      3.40363174	      8.34053712	     12.54316239	    -22.83223999	      8.62581812	     36.31993378	     84.27052847	      6.69545557	     -8.08803888	     13.51051804	     21.66352389	     95.14398190
     29.95000000	      4.22151333	     -2.60977620	     -2.78700261	      0.59268868	      1.01234867	      0.74759460	    -19.90897291	      3.36081586	      4.59879310	      3.78533186	      0.06606650	     18.69246472	      5.99419500	     -7.49999987	     24.70128218	     -3.69364225	     -0.12736716	     11.88465820	      0.20742642	      8.47524456	      1.89961161	     -7.49999987	    -20.17964792	      3.02008144	      8.63781567	     12.22930947	    -22.99661811	      8.91107787	     36.10235912	     83.03839183	      7.01091483	     -8.12337950	     14.42597566	     21.21678747	     94.00714497
     29.96666670	      4.16071229	     -2.39415748	     -3.02510705	      0.59501927	      1.00900876	      0.74710613	    -20.81775747	      2.81974771	      5.02479932	      4.11804759	      0.07187349	     18.35980039	      5.70501329	     -7.49999987	     24.99145125	     -3.30389933	     -0.36470425	     13.66721945	      0.23853798	      7.45827158	      1.18765389	     -7.49999987	    -19.98801621	      2.57935126	      8.94856269	     11.90546684	    -23.05430633	      9.05301885	     35.87550080	     82.20191760	      7.45608503	     -8.25253825	     15.52921686	     20.68506707	     93.04245358
     29.98333330	      4.10865460	     -2.13741459	     -3.23199942	      0.59765211	      1.00793726	      0.74668744	    -21.46945306	      2.24230661	      5.29574442	      4.80688963	      0.08389605	     17.71641613	      5.23097038	     -7.49999987	     25.13647635	     -2.92393382	     -0.50981611	     15.61520109	      0.27253667	      6.27425608	      0.53456216	     -7.49999987	    -19.83743854	      2.02764511	      9.31248442	     11.34171225	    -23.01588072	      8.97130084	     35.73305401	     82.02249247	      7.97406030	     -8.51805899	     17.06982081	     20.26047614	     92.66737005
     30.00000000	      4.06541418	     -1.85896754	     -3.39523150	      0.60008322	      1.00889013	      0.74640697	    -21.83345722	      1.66758922	      5.61303786	      5.88773957	      0.10276044	     16.60447052	      4.24962262	     -7.49999987	     25.12475326	     -2.56682910	     -0.51465440	     17.52824030	      0.30592551	      4.93784967	     -0.18579084	     -7.49999987	    -19.79801228	      1.42701187	      9.79758096	     10.28159762	    -22.65928137	      6.94988726	     36.11647079	     85.18324163	      8.56283223	     -8.76239157	     18.07920472	     19.94689196	     95.78194193
     30.01666670	      3.93621052	     -1.62310780	     -3.43647351	      0.60210628	      1.01063965	      0.74563249	    -21.74736916	      1.18798496	      5.66284083	      7.46353397	      0.13026324	     15.21287925	      3.24235283	     -7.49999987	     25.09196955	     -2.26624100	     -0.40199556	     19.30604239	      0.33695401	      3.70989641	     -0.66060078	     -7.49999987	    -19.62384353	      0.91008309	      9.88065044	      9.70663958	    -22.19470029	      6.20357597	     35.74181938	     86.59183340	      8.97980001	     -8.91631577	     18.44955924	     19.43760529	     96.43124513
     30.03333330	      3.87230836	     -1.42865982	     -3.38104382	      0.60378153	      1.01316252	      0.74450276	    -21.41323440	      0.78866923	      5.53311760	      9.42814811	      0.16455223	     13.30468662	      2.04999496	     -7.49999987	     24.86238219	     -1.97241843	     -0.13262001	     20.86104593	      0.36409394	      2.74317436	     -1.15676679	     -7.49999987	    -19.52869280	      0.47199272	      9.67838327	      9.38787006	    -21.69074224	      6.36450318	     35.10548307	     86.08041570	      9.23134864	     -9.11290720	     18.94656441	     19.16284129	     95.72585618
     30.05000000	      3.79446804	     -1.28570880	     -3.30127437	      0.60512210	      1.01687279	      0.74373100	    -20.70201016	      0.48071531	      5.32227672	     11.85229019	      0.20686149	     10.98151760	      0.66710169	     -7.49999987	     24.48675158	     -1.73032686	      0.17289843	     22.08488906	      0.38545403	      2.08672248	     -1.62109292	     -7.49999987	    -19.43311347	      0.08921667	      9.39211716	      8.98699361	    -21.05732325	      6.23603392	     34.56320367	     85.56939163	      9.49625756	     -9.31063592	     19.44296027	     18.87470443	     94.96928626
     30.06666670	      3.99955353	     -1.16819991	     -3.36185474	      0.60756003	      1.02043116	      0.74313841	    -19.86650856	      0.19182025	      5.35137392	     14.85432355	      0.25925685	      7.98232911	     -1.25484095	     -7.49999987	     23.57376519	     -1.60984864	      0.13527832	     22.95090346	      0.40056883	      2.05555760	     -1.56033653	     -7.49999987	    -19.78994047	     -0.36581216	      9.13970331	      8.63092154	    -20.42759629	      6.18174137	     34.23848912	     84.68448769	      9.47721259	     -9.73857770	     19.27520940	     19.87139964	     93.28068980
     30.08333330	      3.85547040	     -1.05808869	     -3.13913655	      0.61353619	      1.02164970	      0.74084020	    -18.07057012	     -0.08466642	      4.50056207	     18.96569685	      0.33101385	      4.76577101	     -2.25715964	     -7.49999987	     22.85238525	     -1.27600661	      0.73731756	     23.61486593	      0.41215716	      1.96461419	     -2.45814361	     -7.49999987	    -19.47543696	     -0.60944796	      8.39029375	      8.12699364	    -19.64426509	      5.87397404	     33.97529469	     84.81468443	      9.74063011	    -10.01618949	     19.64941791	     19.26529119	     93.54879102
     30.10000000	      4.27380734	     -0.85677017	     -3.00270190	      0.62087098	      1.02316774	      0.73800916	    -16.24169260	     -0.60415859	      3.57468745	     24.18126785	      0.42204274	      0.71982027	     -3.15827165	     -7.49999987	     21.28302012	     -0.87361468	      0.99952722	     24.15978082	      0.42166772	      2.59300576	     -2.88232178	     -7.49999987	    -19.79382665	     -1.07861823	      7.84274659	      7.56021083	    -19.01803295	      5.71000805	     33.68878552	     84.84530449	     10.13168135	    -10.38548191	     19.75150364	     19.18413228	     93.61792869
     30.11666670	      4.16098164	     -0.59329748	     -3.19839339	      0.62574312	      1.02398275	      0.73609226	    -13.12576622	     -1.13401575	      3.54593142	     30.50844904	      0.53247289	     -4.97147476	     -5.69891654	     -7.49999987	     20.09067236	     -0.54102746	      0.87814596	     24.52374209	      0.42802004	      3.38472184	     -3.56692015	     -7.49999987	    -19.34240388	     -1.72991381	      8.21702141	      6.18982440	    -17.84551268	      2.05398426	     33.39115594	     86.76614218	     11.03605990	    -10.76083036	     22.10424012	     18.39151769	     95.08580881
     30.13333330	      4.35103118	     -0.17930651	     -3.53025321	      0.62613533	      1.02409225	      0.73494288	     -9.91539392	     -1.94809120	      3.35148773	     37.19253285	      0.64913216	    -10.29638712	     -7.17369822	     -7.49999987	     18.43762188	     -0.02574399	      0.56911713	     24.52715978	      0.42807969	      4.49447715	     -4.12961728	     -7.49999987	    -19.47955167	     -2.53965762	      7.72852446	      5.77087197	    -17.28826325	      2.05927734	     33.48077893	     86.74735784	     11.17493864	    -11.35351656	     22.13920023	     18.61966650	     94.88589017
